<mxfile host="app.diagrams.net" agent="Mozilla/5.0 (Windows NT 10.0; Win64; x64) AppleWebKit/537.36 (KHTML, like Gecko) Chrome/131.0.0.0 Safari/537.36" version="25.0.3">
  <diagram name="Página-1" id="yWCr3m4Fc35N5_DwNfT2">
    <mxGraphModel dx="989" dy="567" grid="1" gridSize="10" guides="1" tooltips="1" connect="1" arrows="1" fold="1" page="1" pageScale="1" pageWidth="2339" pageHeight="3300" math="0" shadow="0">
      <root>
        <mxCell id="0" />
        <mxCell id="1" parent="0" />
        <mxCell id="kNifeet31m266qXizDom-1" style="edgeStyle=none;curved=1;rounded=0;orthogonalLoop=1;jettySize=auto;html=1;exitX=0.5;exitY=1;exitDx=0;exitDy=0;entryX=0.5;entryY=0;entryDx=0;entryDy=0;fontSize=12;startSize=8;endSize=8;endArrow=none;endFill=0;" edge="1" parent="1" source="kNifeet31m266qXizDom-2">
          <mxGeometry relative="1" as="geometry">
            <mxPoint x="178" y="517" as="targetPoint" />
          </mxGeometry>
        </mxCell>
        <mxCell id="kNifeet31m266qXizDom-2" value="USUARIO" style="rounded=0;whiteSpace=wrap;html=1;" vertex="1" parent="1">
          <mxGeometry x="118" y="156" width="120" height="60" as="geometry" />
        </mxCell>
        <mxCell id="kNifeet31m266qXizDom-3" style="edgeStyle=none;curved=1;rounded=0;orthogonalLoop=1;jettySize=auto;html=1;exitX=0.5;exitY=1;exitDx=0;exitDy=0;entryX=0.5;entryY=0;entryDx=0;entryDy=0;fontSize=12;startSize=8;endSize=8;endArrow=none;endFill=0;" edge="1" parent="1" source="kNifeet31m266qXizDom-4">
          <mxGeometry relative="1" as="geometry">
            <mxPoint x="360" y="517" as="targetPoint" />
          </mxGeometry>
        </mxCell>
        <mxCell id="kNifeet31m266qXizDom-4" value="INTERFAZ DE USUARIO" style="rounded=0;whiteSpace=wrap;html=1;" vertex="1" parent="1">
          <mxGeometry x="300" y="156" width="120" height="60" as="geometry" />
        </mxCell>
        <mxCell id="kNifeet31m266qXizDom-5" style="edgeStyle=none;curved=1;rounded=0;orthogonalLoop=1;jettySize=auto;html=1;exitX=0.5;exitY=1;exitDx=0;exitDy=0;entryX=0.5;entryY=0;entryDx=0;entryDy=0;fontSize=12;startSize=8;endSize=8;endArrow=none;endFill=0;" edge="1" parent="1" source="kNifeet31m266qXizDom-6">
          <mxGeometry relative="1" as="geometry">
            <mxPoint x="542" y="517" as="targetPoint" />
          </mxGeometry>
        </mxCell>
        <mxCell id="kNifeet31m266qXizDom-6" value="INTERFAZ DE SERVICIO" style="rounded=0;whiteSpace=wrap;html=1;" vertex="1" parent="1">
          <mxGeometry x="482" y="156" width="120" height="60" as="geometry" />
        </mxCell>
        <mxCell id="kNifeet31m266qXizDom-7" value="" style="endArrow=classic;html=1;rounded=0;fontSize=12;startSize=8;endSize=8;curved=1;" edge="1" parent="1">
          <mxGeometry width="50" height="50" relative="1" as="geometry">
            <mxPoint x="180" y="280" as="sourcePoint" />
            <mxPoint x="360" y="280" as="targetPoint" />
          </mxGeometry>
        </mxCell>
        <mxCell id="kNifeet31m266qXizDom-8" value="&lt;font style=&quot;font-size: 10px;&quot;&gt;Pulsar en el cliente&lt;/font&gt;" style="text;html=1;align=center;verticalAlign=middle;resizable=0;points=[];autosize=1;strokeColor=none;fillColor=none;fontSize=16;" vertex="1" parent="1">
          <mxGeometry x="215" y="251" width="110" height="30" as="geometry" />
        </mxCell>
        <mxCell id="kNifeet31m266qXizDom-9" value="" style="endArrow=classic;html=1;rounded=0;fontSize=12;startSize=8;endSize=8;curved=1;" edge="1" parent="1">
          <mxGeometry width="50" height="50" relative="1" as="geometry">
            <mxPoint x="360" y="310" as="sourcePoint" />
            <mxPoint x="540" y="310" as="targetPoint" />
          </mxGeometry>
        </mxCell>
        <mxCell id="kNifeet31m266qXizDom-10" value="&lt;span style=&quot;font-size: 10px;&quot;&gt;Solicitar información del cliente&lt;/span&gt;" style="text;html=1;align=center;verticalAlign=middle;resizable=0;points=[];autosize=1;strokeColor=none;fillColor=none;fontSize=16;" vertex="1" parent="1">
          <mxGeometry x="370" y="281" width="160" height="30" as="geometry" />
        </mxCell>
        <mxCell id="kNifeet31m266qXizDom-12" value="" style="endArrow=classic;html=1;rounded=0;fontSize=12;startSize=8;endSize=8;curved=1;dashed=1;" edge="1" parent="1">
          <mxGeometry width="50" height="50" relative="1" as="geometry">
            <mxPoint x="540" y="350" as="sourcePoint" />
            <mxPoint x="360" y="350" as="targetPoint" />
          </mxGeometry>
        </mxCell>
        <mxCell id="kNifeet31m266qXizDom-13" value="&lt;span style=&quot;font-size: 10px;&quot;&gt;Información del cliente&lt;/span&gt;" style="text;html=1;align=center;verticalAlign=middle;resizable=0;points=[];autosize=1;strokeColor=none;fillColor=none;fontSize=16;" vertex="1" parent="1">
          <mxGeometry x="390" y="320" width="120" height="30" as="geometry" />
        </mxCell>
        <mxCell id="kNifeet31m266qXizDom-14" value="" style="endArrow=classic;html=1;rounded=0;fontSize=12;startSize=8;endSize=8;curved=1;dashed=1;" edge="1" parent="1">
          <mxGeometry width="50" height="50" relative="1" as="geometry">
            <mxPoint x="360" y="380" as="sourcePoint" />
            <mxPoint x="180" y="380" as="targetPoint" />
          </mxGeometry>
        </mxCell>
        <mxCell id="kNifeet31m266qXizDom-15" value="&lt;span style=&quot;font-size: 10px;&quot;&gt;Información del cliente&lt;/span&gt;" style="text;html=1;align=center;verticalAlign=middle;resizable=0;points=[];autosize=1;strokeColor=none;fillColor=none;fontSize=16;" vertex="1" parent="1">
          <mxGeometry x="210" y="350" width="120" height="30" as="geometry" />
        </mxCell>
        <mxCell id="kNifeet31m266qXizDom-20" value="" style="endArrow=classic;html=1;rounded=0;fontSize=12;startSize=8;endSize=8;curved=1;" edge="1" parent="1">
          <mxGeometry width="50" height="50" relative="1" as="geometry">
            <mxPoint x="180" y="419" as="sourcePoint" />
            <mxPoint x="360" y="419" as="targetPoint" />
          </mxGeometry>
        </mxCell>
        <mxCell id="kNifeet31m266qXizDom-21" value="&lt;font style=&quot;font-size: 10px;&quot;&gt;Editar información del cliente&lt;/font&gt;" style="text;html=1;align=center;verticalAlign=middle;resizable=0;points=[];autosize=1;strokeColor=none;fillColor=none;fontSize=16;" vertex="1" parent="1">
          <mxGeometry x="195" y="390" width="150" height="30" as="geometry" />
        </mxCell>
        <mxCell id="kNifeet31m266qXizDom-22" value="" style="endArrow=classic;html=1;rounded=0;fontSize=12;startSize=8;endSize=8;curved=1;" edge="1" parent="1">
          <mxGeometry width="50" height="50" relative="1" as="geometry">
            <mxPoint x="360" y="449" as="sourcePoint" />
            <mxPoint x="540" y="449" as="targetPoint" />
          </mxGeometry>
        </mxCell>
        <mxCell id="kNifeet31m266qXizDom-23" value="&lt;span style=&quot;font-size: 10px;&quot;&gt;Solicitar modificación de información&lt;/span&gt;" style="text;html=1;align=center;verticalAlign=middle;resizable=0;points=[];autosize=1;strokeColor=none;fillColor=none;fontSize=16;" vertex="1" parent="1">
          <mxGeometry x="355" y="420" width="190" height="30" as="geometry" />
        </mxCell>
        <mxCell id="kNifeet31m266qXizDom-24" value="" style="endArrow=classic;html=1;rounded=0;fontSize=12;startSize=8;endSize=8;curved=1;dashed=1;" edge="1" parent="1">
          <mxGeometry width="50" height="50" relative="1" as="geometry">
            <mxPoint x="545" y="480" as="sourcePoint" />
            <mxPoint x="365" y="480" as="targetPoint" />
          </mxGeometry>
        </mxCell>
        <mxCell id="kNifeet31m266qXizDom-25" value="&lt;span style=&quot;font-size: 10px;&quot;&gt;Cliente actualizado&lt;/span&gt;" style="text;html=1;align=center;verticalAlign=middle;resizable=0;points=[];autosize=1;strokeColor=none;fillColor=none;fontSize=16;" vertex="1" parent="1">
          <mxGeometry x="400" y="450" width="110" height="30" as="geometry" />
        </mxCell>
        <mxCell id="kNifeet31m266qXizDom-26" value="" style="endArrow=classic;html=1;rounded=0;fontSize=12;startSize=8;endSize=8;curved=1;dashed=1;" edge="1" parent="1">
          <mxGeometry width="50" height="50" relative="1" as="geometry">
            <mxPoint x="360" y="510" as="sourcePoint" />
            <mxPoint x="180" y="510" as="targetPoint" />
          </mxGeometry>
        </mxCell>
        <mxCell id="kNifeet31m266qXizDom-27" value="&lt;span style=&quot;font-size: 10px;&quot;&gt;Cliente actualizado&lt;/span&gt;" style="text;html=1;align=center;verticalAlign=middle;resizable=0;points=[];autosize=1;strokeColor=none;fillColor=none;fontSize=16;" vertex="1" parent="1">
          <mxGeometry x="215" y="480" width="110" height="30" as="geometry" />
        </mxCell>
      </root>
    </mxGraphModel>
  </diagram>
</mxfile>
